Coordinates
version=1
nRows=43
nColumns=12
inDegrees=yes

Units are S.I. units (second, meters, Newtons, ...)
Angles are in degrees

endheader
time	SC_y	SC_z	SC_x	AC_y	AC_z	AC_x	GH_y	GH_z	GH_yy	EL_x	PS_y
       0.0              -52.28           28.3          20.81          44.49         0.1631          12.82         -31.38         -17.49          142.2          49.61          148.4
   0.03561              -52.28           28.3          20.82          44.49         0.1631          12.81         -31.38         -17.48          142.2          49.61          148.4
   0.07123              -52.28           28.3          20.83          44.49         0.1632          12.81         -31.38         -17.46          142.2          49.61          148.4
    0.1068              -52.28           28.3          20.84          44.49         0.1633          12.81         -31.37         -17.45          142.2           49.6          148.4
    0.1425              -52.27           28.3          20.84          44.49         0.1634          12.81         -31.37         -17.44          142.2           49.6          148.4
    0.1781              -52.27           28.3          20.85          44.49         0.1635          12.81         -31.37         -17.42          142.2           49.6          148.4
    0.2137              -52.27           28.3          20.86          44.49         0.1636           12.8         -31.36          -17.4          142.2           49.6          148.4
    0.2493              -52.27           28.3          20.87          44.49         0.1637           12.8         -31.36         -17.39          142.2           49.6          148.4
    0.2849              -52.27           28.3          20.88          44.49         0.1638           12.8         -31.35         -17.37          142.2           49.6          148.4
    0.3205              -52.27           28.3          20.89          44.49         0.1639           12.8         -31.35         -17.35          142.1           49.6          148.4
    0.3561              -52.27           28.3          20.91          44.49         0.1641          12.79         -31.34         -17.32          142.1          49.59          148.4
    0.3917              -52.27           28.3          20.92          44.49         0.1642          12.79         -31.34          -17.3          142.1          49.59          148.4
    0.4274              -52.26           28.3          20.93          44.48         0.1644          12.79         -31.33         -17.27          142.1          49.59          148.4
     0.463              -52.26           28.3          20.95          44.48         0.1646          12.78         -31.33         -17.25          142.1          49.59          148.4
    0.4986              -52.26           28.3          20.97          44.48         0.1647          12.78         -31.32         -17.22          142.0          49.58          148.4
    0.5342              -52.26           28.3          20.98          44.48         0.1649          12.78         -31.31         -17.18          142.0          49.58          148.4
    0.5698              -52.26           28.3           21.0          44.48         0.1652          12.77         -31.31         -17.15          142.0          49.58          148.3
    0.6054              -52.25           28.3          21.03          44.48         0.1654          12.77          -31.3         -17.11          142.0          49.57          148.3
     0.641              -52.25          28.31          21.05          44.48         0.1657          12.76         -31.29         -17.07          141.9          49.57          148.3
    0.6766              -52.25          28.31          21.08          44.48          0.166          12.75         -31.28         -17.02          141.9          49.57          148.3
    0.7123              -52.24          28.31           21.1          44.48         0.1663          12.75         -31.27         -16.97          141.9          49.56          148.3
    0.7479              -52.24          28.31          21.14          44.47         0.1666          12.74         -31.25         -16.91          141.8          49.56          148.3
    0.7835              -52.24          28.31          21.17          44.47          0.167          12.73         -31.24         -16.85          141.8          49.55          148.3
    0.8191              -52.23          28.31          21.21          44.47         0.1674          12.72         -31.22         -16.78          141.7          49.55          148.2
    0.8547              -52.23          28.31          21.25          44.47         0.1679          12.71         -31.21         -16.71          141.7          49.54          148.2
    0.8903              -52.22          28.31           21.3          44.47         0.1684           12.7         -31.19         -16.62          141.6          49.53          148.2
    0.9259              -52.21          28.32          21.35          44.46          0.169          12.69         -31.17         -16.53          141.5          49.52          148.2
    0.9615              -52.21          28.32          21.41          44.46         0.1697          12.67         -31.14         -16.42          141.5          49.51          148.1
    0.9972               -52.2          28.32          21.48          44.46         0.1704          12.66         -31.12          -16.3          141.4           49.5          148.1
     1.033              -52.19          28.32          21.55          44.45         0.1712          12.64         -31.09         -16.17          141.3          49.49          148.0
     1.068              -52.18          28.33          21.64          44.45         0.1722          12.62         -31.05         -16.01          141.2          49.48          148.0
     1.104              -52.17          28.33          21.74          44.45         0.1733          12.59         -31.01         -15.83          141.0          49.46          147.9
      1.14              -52.15          28.34          21.86          44.44         0.1746          12.57         -30.97         -15.62          140.9          49.45          147.9
     1.175              -52.14          28.34          21.99          44.43         0.1761          12.53         -30.91         -15.38          140.7          49.42          147.8
     1.211              -52.12          28.35          22.15          44.43         0.1778           12.5         -30.85          -15.1          140.5           49.4          147.7
     1.246               -52.1          28.35          22.33          44.42         0.1799          12.45         -30.78         -14.77          140.2          49.37          147.6
     1.282              -52.07          28.36          22.55          44.41         0.1823           12.4         -30.69         -14.37          140.0          49.34          147.5
     1.318              -52.04          28.37          22.82          44.39         0.1852          12.33         -30.59          -13.9          139.6           49.3          147.3
     1.353               -52.0          28.38          23.14          44.38         0.1888          12.26         -30.46         -13.33          139.2          49.25          147.2
     1.389              -51.96           28.4          23.53          44.36         0.1931          12.16         -30.31         -12.63          138.7          49.19          147.0
     1.425               -51.9          28.41          24.01          44.34         0.1984          12.05         -30.12         -11.77          138.0          49.11          146.7
      1.46              -51.83          28.44          24.61          44.31         0.2051           11.9         -29.88         -10.69          137.2          49.02          146.4
     1.496              -51.74          28.47          25.37          44.27         0.2135          11.72         -29.58         -9.341          136.2           48.9          145.9
